<svg width="48" height="48" viewBox="0 0 48 48" fill="none" xmlns="http://www.w3.org/2000/svg">
<mask id="path-1-inside-1_16_1455" fill="white">
<path d="M28.3117 23.6447C28.0709 23.6447 27.8473 23.5785 27.6487 23.472V23.4748C27.6487 23.8537 27.5014 24.2094 27.2343 24.4759C26.9671 24.7431 26.6116 24.8903 26.2332 24.8903C25.9889 24.8903 25.7625 24.8225 25.5617 24.7131C25.5415 25.0597 25.4029 25.3837 25.1558 25.6311C24.8886 25.8982 24.5331 26.0455 24.1545 26.0455C23.4022 26.0455 22.7913 25.4541 22.7473 24.7129C22.5145 24.8387 22.2513 24.9047 21.9799 24.8873C21.2398 24.8387 20.6603 24.1993 20.6603 23.4312V17.0646L19.9353 18.3206C19.6592 18.8009 19.1423 19.0992 18.5858 19.0992C18.3147 19.0992 18.0468 19.028 17.8095 18.8921C17.5141 18.7208 17.3028 18.4459 17.2149 18.117C17.1265 17.7878 17.1722 17.4436 17.3431 17.1486C17.3433 17.1486 19.715 13.0414 19.8597 12.7891C19.8769 12.7512 19.9259 12.6412 19.9676 12.5474C20.0075 12.4579 20.0416 12.366 20.0744 12.2737C20.7896 10.2544 22.5607 9.00004 24.6966 9.00004C27.4703 9.00004 29.7268 11.4469 29.7268 14.4546L29.727 22.229C29.727 22.6074 29.58 22.9629 29.3131 23.2303C29.0459 23.4975 28.6904 23.6447 28.3116 23.6447L28.3117 23.6447ZM24.6966 9.75218C22.8613 9.75218 21.3984 10.7888 20.7833 12.5252C20.744 12.6355 20.703 12.7457 20.6552 12.8532C20.5164 13.1644 20.5164 13.1644 20.4773 13.2091L20.4721 13.2047C20.2784 13.5701 19.7031 14.5664 17.9943 17.5251C17.9241 17.6464 17.9055 17.7873 17.9413 17.922C17.9776 18.0568 18.0645 18.1704 18.1849 18.2399C18.5586 18.4545 19.0703 18.316 19.2833 17.9449L20.7108 15.4734C20.7961 15.3262 20.9685 15.2539 21.1339 15.2986C21.2983 15.3427 21.4126 15.4918 21.4126 15.6619V23.4315C21.4126 23.798 21.6892 24.1144 22.0292 24.1368C22.2252 24.1472 22.408 24.0815 22.5454 23.9443C22.6702 23.8195 22.739 23.6531 22.739 23.4753V18.3939C22.739 18.1861 22.9075 18.0176 23.1153 18.0176C23.3231 18.0176 23.4915 18.1859 23.4915 18.3939L23.4913 24.6303C23.4913 24.9959 23.7889 25.2935 24.1545 25.2935C24.3321 25.2935 24.499 25.2247 24.6241 25.0998C24.7489 24.9747 24.8177 24.8079 24.8177 24.6303V18.3939C24.8177 18.1861 24.9859 18.0176 25.194 18.0176C25.4018 18.0176 25.5702 18.1858 25.5702 18.3939L25.57 23.4168V23.4752C25.57 23.8407 25.8675 24.1382 26.2334 24.1382C26.4108 24.1382 26.5772 24.0692 26.703 23.9438C26.8278 23.8192 26.8966 23.6529 26.8966 23.475V18.3936C26.8966 18.1858 27.0649 18.0174 27.2729 18.0174C27.4807 18.0174 27.6491 18.1856 27.6491 18.3936L27.6487 22.2292C27.6487 22.595 27.9462 22.8926 28.3116 22.8926C28.4895 22.8926 28.6558 22.8236 28.7807 22.699C28.906 22.5736 28.9746 22.4068 28.9746 22.2292L28.9748 14.4548C28.9748 11.8621 27.0557 9.75226 24.6966 9.75226L24.6966 9.75218Z"/>
</mask>
<path d="M28.3117 23.6447C28.0709 23.6447 27.8473 23.5785 27.6487 23.472V23.4748C27.6487 23.8537 27.5014 24.2094 27.2343 24.4759C26.9671 24.7431 26.6116 24.8903 26.2332 24.8903C25.9889 24.8903 25.7625 24.8225 25.5617 24.7131C25.5415 25.0597 25.4029 25.3837 25.1558 25.6311C24.8886 25.8982 24.5331 26.0455 24.1545 26.0455C23.4022 26.0455 22.7913 25.4541 22.7473 24.7129C22.5145 24.8387 22.2513 24.9047 21.9799 24.8873C21.2398 24.8387 20.6603 24.1993 20.6603 23.4312V17.0646L19.9353 18.3206C19.6592 18.8009 19.1423 19.0992 18.5858 19.0992C18.3147 19.0992 18.0468 19.028 17.8095 18.8921C17.5141 18.7208 17.3028 18.4459 17.2149 18.117C17.1265 17.7878 17.1722 17.4436 17.3431 17.1486C17.3433 17.1486 19.715 13.0414 19.8597 12.7891C19.8769 12.7512 19.9259 12.6412 19.9676 12.5474C20.0075 12.4579 20.0416 12.366 20.0744 12.2737C20.7896 10.2544 22.5607 9.00004 24.6966 9.00004C27.4703 9.00004 29.7268 11.4469 29.7268 14.4546L29.727 22.229C29.727 22.6074 29.58 22.9629 29.3131 23.2303C29.0459 23.4975 28.6904 23.6447 28.3116 23.6447L28.3117 23.6447ZM24.6966 9.75218C22.8613 9.75218 21.3984 10.7888 20.7833 12.5252C20.744 12.6355 20.703 12.7457 20.6552 12.8532C20.5164 13.1644 20.5164 13.1644 20.4773 13.2091L20.4721 13.2047C20.2784 13.5701 19.7031 14.5664 17.9943 17.5251C17.9241 17.6464 17.9055 17.7873 17.9413 17.922C17.9776 18.0568 18.0645 18.1704 18.1849 18.2399C18.5586 18.4545 19.0703 18.316 19.2833 17.9449L20.7108 15.4734C20.7961 15.3262 20.9685 15.2539 21.1339 15.2986C21.2983 15.3427 21.4126 15.4918 21.4126 15.6619V23.4315C21.4126 23.798 21.6892 24.1144 22.0292 24.1368C22.2252 24.1472 22.408 24.0815 22.5454 23.9443C22.6702 23.8195 22.739 23.6531 22.739 23.4753V18.3939C22.739 18.1861 22.9075 18.0176 23.1153 18.0176C23.3231 18.0176 23.4915 18.1859 23.4915 18.3939L23.4913 24.6303C23.4913 24.9959 23.7889 25.2935 24.1545 25.2935C24.3321 25.2935 24.499 25.2247 24.6241 25.0998C24.7489 24.9747 24.8177 24.8079 24.8177 24.6303V18.3939C24.8177 18.1861 24.9859 18.0176 25.194 18.0176C25.4018 18.0176 25.5702 18.1858 25.5702 18.3939L25.57 23.4168V23.4752C25.57 23.8407 25.8675 24.1382 26.2334 24.1382C26.4108 24.1382 26.5772 24.0692 26.703 23.9438C26.8278 23.8192 26.8966 23.6529 26.8966 23.475V18.3936C26.8966 18.1858 27.0649 18.0174 27.2729 18.0174C27.4807 18.0174 27.6491 18.1856 27.6491 18.3936L27.6487 22.2292C27.6487 22.595 27.9462 22.8926 28.3116 22.8926C28.4895 22.8926 28.6558 22.8236 28.7807 22.699C28.906 22.5736 28.9746 22.4068 28.9746 22.2292L28.9748 14.4548C28.9748 11.8621 27.0557 9.75226 24.6966 9.75226L24.6966 9.75218Z" fill="#4CAF4F"/>
<path d="M28.3117 23.6447V22.3114H33.0224L29.0104 24.7802L28.3117 23.6447ZM27.6487 23.472H26.3154V21.2442L28.2788 22.2969L27.6487 23.472ZM27.2343 24.4759L26.2915 23.5331L26.2927 23.5318L27.2343 24.4759ZM25.5617 24.7131L24.2307 24.6353L24.3534 22.5369L26.1994 23.5422L25.5617 24.7131ZM25.1558 25.6311L26.0991 26.5734L26.0986 26.5739L25.1558 25.6311ZM22.7473 24.7129L22.1133 23.5399L23.9542 22.545L24.0782 24.6339L22.7473 24.7129ZM21.9799 24.8873L21.8944 26.2178L21.8926 26.2177L21.9799 24.8873ZM20.6603 17.0646L19.5055 16.398L21.9936 12.0875V17.0646H20.6603ZM19.9353 18.3206L18.7794 17.6561L18.7806 17.654L19.9353 18.3206ZM17.8095 18.8921L17.1466 20.049L17.1408 20.0456L17.8095 18.8921ZM17.2149 18.117L18.5026 17.7713L18.503 17.7728L17.2149 18.117ZM17.3431 17.1486L16.1892 16.4805L16.5744 15.8153H17.3431V17.1486ZM19.8597 12.7891L21.0741 13.3397L21.0479 13.3975L21.0164 13.4525L19.8597 12.7891ZM19.9676 12.5474L18.7494 12.0056L18.7494 12.0056L19.9676 12.5474ZM20.0744 12.2737L21.3312 12.7188L21.3311 12.7192L20.0744 12.2737ZM29.7268 14.4546L28.3935 14.4547V14.4546H29.7268ZM29.727 22.229L31.0604 22.2289V22.229H29.727ZM29.3131 23.2303L30.2568 24.1722L30.2559 24.1731L29.3131 23.2303ZM28.3116 23.6447V24.9781H23.6009L27.6128 22.5092L28.3116 23.6447ZM24.6966 9.75218V8.41885H26.4642L25.9786 10.1185L24.6966 9.75218ZM20.7833 12.5252L22.0401 12.9704L22.0391 12.9733L20.7833 12.5252ZM20.6552 12.8532L21.8732 13.3954L21.8729 13.3961L20.6552 12.8532ZM20.4773 13.2091L21.4813 14.0864L20.6091 15.0847L19.6058 14.2182L20.4773 13.2091ZM20.4721 13.2047L19.294 12.5803L20.0774 11.102L21.3436 12.1956L20.4721 13.2047ZM17.9943 17.5251L19.1489 18.1919L19.1484 18.1929L17.9943 17.5251ZM17.9413 17.922L16.6538 18.2687L16.6527 18.2645L17.9413 17.922ZM18.1849 18.2399L17.5208 19.396L17.5183 19.3946L18.1849 18.2399ZM19.2833 17.9449L18.1269 17.2812L18.1287 17.278L19.2833 17.9449ZM20.7108 15.4734L19.5562 14.8066L19.557 14.8052L20.7108 15.4734ZM21.1339 15.2986L20.7889 16.5866L20.7856 16.5857L21.1339 15.2986ZM22.0292 24.1368L21.9588 25.4683L21.9502 25.4678L21.9416 25.4673L22.0292 24.1368ZM22.5454 23.9443L23.4882 24.8871L23.4874 24.888L22.5454 23.9443ZM23.4915 18.3939H24.8249V18.3939L23.4915 18.3939ZM23.4913 24.6303H22.158V24.6302L23.4913 24.6303ZM24.6241 25.0998L25.5678 26.0417L25.566 26.0435L24.6241 25.0998ZM25.5702 18.3939H26.9036V18.3939L25.5702 18.3939ZM25.57 23.4168H24.2367V23.4168L25.57 23.4168ZM26.703 23.9438L27.6449 24.8875L27.644 24.8884L26.703 23.9438ZM27.6491 18.3936H28.9825V18.3938L27.6491 18.3936ZM27.6487 22.2292H26.3153V22.229L27.6487 22.2292ZM28.7807 22.699L29.7235 23.6418L29.7226 23.6426L28.7807 22.699ZM28.9746 22.2292H27.6413V22.2291L28.9746 22.2292ZM28.9748 14.4548H30.3082V14.4549L28.9748 14.4548ZM24.6966 9.75226V11.0856H22.9289L23.4146 9.38597L24.6966 9.75226ZM28.3117 24.978C27.8207 24.978 27.3824 24.8421 27.0186 24.6471L28.2788 22.2969C28.296 22.3062 28.3069 22.3097 28.3113 22.3109C28.315 22.3119 28.3145 22.3114 28.3117 22.3114V24.978ZM28.982 23.472V23.4748H26.3154V23.472H28.982ZM28.982 23.4748C28.982 24.2062 28.695 24.9021 28.1758 25.42L26.2927 23.5318C26.3022 23.5223 26.307 23.5142 26.3097 23.5075C26.3125 23.5009 26.3154 23.4906 26.3154 23.4748H28.982ZM28.1771 25.4187C27.6597 25.9361 26.9649 26.2237 26.2332 26.2237V23.557C26.2485 23.557 26.2586 23.5542 26.2654 23.5514C26.2722 23.5486 26.281 23.5435 26.2915 23.5331L28.1771 25.4187ZM26.2332 26.2237C25.7358 26.2237 25.292 26.0845 24.9241 25.8841L26.1994 23.5422C26.2168 23.5516 26.2278 23.5552 26.2321 23.5564C26.2359 23.5574 26.2356 23.557 26.2332 23.557V26.2237ZM26.8928 24.791C26.8544 25.4473 26.5882 26.0838 26.0991 26.5734L24.2125 24.6887C24.2174 24.6838 24.2203 24.6794 24.2227 24.6739C24.2254 24.6679 24.2295 24.6557 24.2307 24.6353L26.8928 24.791ZM26.0986 26.5739C25.5811 27.0914 24.8863 27.3788 24.1545 27.3788V24.7121C24.17 24.7121 24.1802 24.7093 24.187 24.7065C24.1938 24.7037 24.2026 24.6987 24.213 24.6882L26.0986 26.5739ZM24.1545 27.3788C22.6825 27.3788 21.5013 26.2235 21.4163 24.792L24.0782 24.6339C24.0796 24.6565 24.0889 24.6764 24.1053 24.6921C24.1133 24.6997 24.1214 24.7046 24.1285 24.7075C24.1347 24.7101 24.1426 24.7121 24.1545 24.7121V27.3788ZM23.3812 25.8859C22.9505 26.1187 22.4399 26.2529 21.8944 26.2178L22.0654 23.5567C22.0654 23.5567 22.0682 23.5569 22.0753 23.5553C22.0828 23.5536 22.0958 23.5494 22.1133 23.5399L23.3812 25.8859ZM21.8926 26.2177C20.4122 26.1206 19.327 24.8617 19.327 23.4312H21.9936C21.9936 23.4763 22.01 23.511 22.0305 23.5337C22.0505 23.5557 22.0641 23.5566 22.0671 23.5568L21.8926 26.2177ZM19.327 23.4312V17.0646H21.9936V23.4312H19.327ZM21.8151 17.7311L21.0901 18.9871L18.7806 17.654L19.5055 16.398L21.8151 17.7311ZM21.0913 18.985C20.5761 19.8813 19.6171 20.4325 18.5858 20.4325V17.7659C18.6676 17.7659 18.7423 17.7205 18.7794 17.6561L21.0913 18.985ZM18.5858 20.4325C18.0816 20.4325 17.5853 20.3003 17.1467 20.049L18.4724 17.7352C18.5083 17.7558 18.5477 17.7659 18.5858 17.7659V20.4325ZM17.1408 20.0456C16.5422 19.6986 16.1065 19.1338 15.9267 18.4611L18.503 17.7728C18.5018 17.7682 18.4985 17.7602 18.4921 17.7518C18.4857 17.7435 18.4798 17.7395 18.4783 17.7386L17.1408 20.0456ZM15.9271 18.4626C15.7467 17.7905 15.8412 17.0816 16.1892 16.4805L18.4969 17.8168C18.4988 17.8135 18.5022 17.8059 18.5036 17.7951C18.505 17.7843 18.5038 17.7757 18.5026 17.7713L15.9271 18.4626ZM17.3431 15.8153C16.689 15.9867 16.1995 16.4631 16.1958 16.4693C16.1946 16.4713 16.1928 16.4744 16.1922 16.4754C16.1919 16.4759 16.1913 16.4769 16.1911 16.4772C16.191 16.4775 16.1907 16.4779 16.1907 16.478C16.1905 16.4783 16.1905 16.4782 16.191 16.4773C16.192 16.4758 16.1935 16.4731 16.1957 16.4693C16.2001 16.4617 16.2066 16.4504 16.2153 16.4353C16.2327 16.4053 16.2582 16.3611 16.2908 16.3047C16.3559 16.192 16.4491 16.0306 16.5614 15.8361C16.786 15.4472 17.087 14.9259 17.3925 14.3968C18.0046 13.3368 18.6321 12.2497 18.7031 12.1258L21.0164 13.4525C20.9427 13.5808 20.312 14.6736 19.7019 15.7302C19.3964 16.2594 19.0953 16.7807 18.8707 17.1697C18.7583 17.3643 18.6651 17.5257 18.5999 17.6386C18.5673 17.695 18.5417 17.7393 18.5242 17.7696C18.5155 17.7847 18.5087 17.7964 18.5041 17.8044C18.5018 17.8083 18.4999 17.8116 18.4985 17.814C18.4979 17.8151 18.4971 17.8165 18.4963 17.8178C18.496 17.8183 18.4952 17.8198 18.4942 17.8215C18.4935 17.8226 18.4916 17.8258 18.4904 17.8279C18.4867 17.8341 17.9971 18.3105 17.3431 18.482V15.8153ZM18.6454 12.2385C18.6601 12.2062 18.7066 12.1018 18.7494 12.0056L21.1859 13.0892C21.1453 13.1806 21.0938 13.2963 21.0741 13.3397L18.6454 12.2385ZM18.7494 12.0056C18.7679 11.9639 18.7884 11.9107 18.8177 11.8281L21.3311 12.7192C21.2949 12.8213 21.247 12.9518 21.1859 13.0892L18.7494 12.0056ZM18.8176 11.8285C19.7206 9.279 21.9936 7.66671 24.6966 7.66671V10.3334C23.1277 10.3334 21.8586 11.2298 21.3312 12.7188L18.8176 11.8285ZM24.6966 7.66671C28.3063 7.66671 31.0601 10.8143 31.0601 14.4546H28.3935C28.3935 12.0796 26.6343 10.3334 24.6966 10.3334V7.66671ZM31.0601 14.4546L31.0604 22.2289L28.3937 22.229L28.3935 14.4547L31.0601 14.4546ZM31.0604 22.229C31.0604 22.9602 30.7735 23.6546 30.2568 24.1722L28.3694 22.2884C28.38 22.2778 28.3851 22.2688 28.388 22.2618C28.3909 22.2548 28.3937 22.2445 28.3937 22.229H31.0604ZM30.2559 24.1731C29.7383 24.6907 29.0435 24.9781 28.3116 24.9781V22.3114C28.3273 22.3114 28.3375 22.3085 28.3443 22.3057C28.3511 22.3029 28.3599 22.2979 28.3703 22.2875L30.2559 24.1731ZM27.6128 22.5092L27.6129 22.5091L29.0104 24.7802L29.0104 24.7803L27.6128 22.5092ZM24.6966 11.0855C23.4289 11.0855 22.4676 11.7637 22.0401 12.9704L19.5265 12.08C20.3293 9.81402 22.2937 8.41885 24.6966 8.41885V11.0855ZM22.0391 12.9733C21.997 13.0913 21.9423 13.2402 21.8732 13.3954L19.4371 12.3109C19.4636 12.2512 19.4909 12.1797 19.5275 12.0771L22.0391 12.9733ZM21.8729 13.3961C21.8119 13.5331 21.7607 13.6487 21.7216 13.727C21.6973 13.7757 21.6579 13.8506 21.6009 13.9336C21.5431 14.0177 21.486 14.0811 21.4813 14.0864L19.4732 12.3318C19.4763 12.3283 19.4753 12.3294 19.4737 12.3313C19.4717 12.3336 19.4665 12.3397 19.4597 12.348C19.4527 12.3565 19.4438 12.3676 19.4338 12.3808C19.4237 12.3941 19.4135 12.4083 19.4032 12.4232C19.3823 12.4536 19.3662 12.4802 19.3548 12.5004C19.3441 12.5191 19.3376 12.5322 19.3361 12.5351C19.3346 12.5381 19.3356 12.5363 19.3401 12.5266C19.3445 12.5172 19.3507 12.5037 19.3596 12.484C19.3684 12.4645 19.379 12.4409 19.3921 12.4117C19.4051 12.3826 19.42 12.3493 19.4374 12.3102L21.8729 13.3961ZM19.6058 14.2182L19.6006 14.2138L21.3436 12.1956L21.3488 12.2L19.6058 14.2182ZM21.6502 13.829C21.4415 14.2228 20.8458 15.2539 19.1489 18.1919L16.8397 16.8582C18.5604 13.8789 19.1153 12.9174 19.294 12.5803L21.6502 13.829ZM19.1484 18.1929C19.255 18.0085 19.2848 17.7861 19.2299 17.5796L16.6527 18.2645C16.5262 17.7885 16.5932 17.2843 16.8403 16.8573L19.1484 18.1929ZM19.2288 17.5754C19.1739 17.3716 19.0391 17.1934 18.8515 17.0851L17.5183 19.3946C17.09 19.1473 16.7812 18.742 16.6538 18.2687L19.2288 17.5754ZM18.849 17.0837C18.6972 16.9965 18.5496 16.9971 18.4477 17.0245C18.3462 17.0519 18.216 17.1259 18.1269 17.2812L20.4397 18.6086C19.8586 19.6211 18.5306 19.976 17.5208 19.396L18.849 17.0837ZM18.1287 17.278L19.5562 14.8066L21.8653 16.1403L20.4379 18.6118L18.1287 17.278ZM19.557 14.8052C19.9421 14.1403 20.7282 13.8075 21.4822 14.0116L20.7856 16.5857C21.2088 16.7002 21.65 16.5121 21.8645 16.1417L19.557 14.8052ZM21.4789 14.0107C22.227 14.2111 22.7459 14.889 22.7459 15.6619H20.0793C20.0793 16.0947 20.3697 16.4743 20.7889 16.5866L21.4789 14.0107ZM22.7459 15.6619V23.4315H20.0793V15.6619H22.7459ZM22.7459 23.4315C22.7459 23.2795 22.6897 23.1414 22.5973 23.0357C22.505 22.9302 22.3422 22.8212 22.1167 22.8064L21.9416 25.4673C20.8192 25.3934 20.0793 24.4157 20.0793 23.4315H22.7459ZM22.0996 22.8053C21.9421 22.797 21.7496 22.8547 21.6034 23.0007L23.4874 24.888C23.0664 25.3082 22.5083 25.4974 21.9588 25.4683L22.0996 22.8053ZM21.6026 23.0015C21.476 23.1281 21.4057 23.3014 21.4057 23.4753H24.0724C24.0724 24.0048 23.8645 24.5109 23.4882 24.8871L21.6026 23.0015ZM21.4057 23.4753V18.3939H24.0724V23.4753H21.4057ZM21.4057 18.3939C21.4057 17.4497 22.1711 16.6843 23.1153 16.6843V19.351C23.6439 19.351 24.0724 18.9225 24.0724 18.3939H21.4057ZM23.1153 16.6843C24.0589 16.6843 24.8249 17.4489 24.8249 18.3939H22.1582C22.1582 18.9228 22.5872 19.351 23.1153 19.351V16.6843ZM24.8249 18.3939L24.8246 24.6303L22.158 24.6302L22.1582 18.3938L24.8249 18.3939ZM24.8246 24.6303C24.8246 24.2595 24.5252 23.9601 24.1545 23.9601V26.6268C23.0525 26.6268 22.158 25.7323 22.158 24.6303H24.8246ZM24.1545 23.9601C23.981 23.9601 23.8084 24.03 23.6822 24.1561L25.566 26.0435C25.1895 26.4193 24.6833 26.6268 24.1545 26.6268V23.9601ZM23.6804 24.1579C23.5543 24.2842 23.4844 24.4567 23.4844 24.6303H26.1511C26.1511 25.1591 25.9436 25.6652 25.5678 26.0417L23.6804 24.1579ZM23.4844 24.6303V18.3939H26.1511V24.6303H23.4844ZM23.4844 18.3939C23.4844 17.4503 24.249 16.6843 25.194 16.6843V19.351C25.7229 19.351 26.1511 18.9219 26.1511 18.3939H23.4844ZM25.194 16.6843C26.1376 16.6843 26.9036 17.4489 26.9036 18.3939H24.2369C24.2369 18.9228 24.6659 19.351 25.194 19.351V16.6843ZM26.9036 18.3939L26.9033 23.4169L24.2367 23.4168L24.2369 18.3938L26.9036 18.3939ZM26.9033 23.4168V23.4752H24.2367V23.4168H26.9033ZM26.9033 23.4752C26.9033 23.1036 26.6033 22.8049 26.2334 22.8049V25.4715C25.1318 25.4715 24.2367 24.5777 24.2367 23.4752H26.9033ZM26.2334 22.8049C26.0563 22.8049 25.8847 22.8769 25.7619 22.9993L27.644 24.8884C27.2696 25.2614 26.7654 25.4715 26.2334 25.4715V22.8049ZM25.7611 23.0001C25.6335 23.1274 25.5633 23.3014 25.5633 23.475H28.23C28.23 24.0044 28.0222 24.511 27.6449 24.8875L25.7611 23.0001ZM25.5633 23.475V18.3936H28.23V23.475H25.5633ZM25.5633 18.3936C25.5633 17.45 26.3279 16.684 27.2729 16.684V19.3507C27.8018 19.3507 28.23 18.9217 28.23 18.3936H25.5633ZM27.2729 16.684C28.2165 16.684 28.9825 17.4487 28.9825 18.3936H26.3158C26.3158 18.9225 26.7448 19.3507 27.2729 19.3507V16.684ZM28.9825 18.3938L28.982 22.2293L26.3153 22.229L26.3158 18.3935L28.9825 18.3938ZM28.982 22.2292C28.982 21.8593 28.6832 21.5593 28.3116 21.5593V24.2259C27.2092 24.2259 26.3153 23.3308 26.3153 22.2292H28.982ZM28.3116 21.5593C28.1367 21.5593 27.9642 21.6301 27.8388 21.7553L29.7226 23.6426C29.3475 24.0171 28.8423 24.2259 28.3116 24.2259V21.5593ZM27.8379 21.7561C27.7109 21.8831 27.6413 22.0564 27.6413 22.2292H30.3079C30.3079 22.7572 30.1011 23.2641 29.7235 23.6418L27.8379 21.7561ZM27.6413 22.2291L27.6415 14.4548L30.3082 14.4549L30.3079 22.2292L27.6413 22.2291ZM27.6415 14.4548C27.6415 12.4769 26.2034 11.0856 24.6966 11.0856V8.41893C27.908 8.41893 30.3082 11.2472 30.3082 14.4548H27.6415ZM23.4146 9.38597L23.4146 9.38589L25.9786 10.1185L25.9786 10.1186L23.4146 9.38597Z" fill="#4CAF4F" mask="url(#path-1-inside-1_16_1455)"/>
<path d="M11.9633 26.214L11.8881 26.1739C11.8705 26.2055 11.8206 26.294 11.7474 26.4259C11.7735 26.4389 11.7993 26.4511 11.8256 26.461C11.8705 26.3802 11.9166 26.298 11.9633 26.214Z" fill="#4CAF4F" stroke="#4CAF4F" stroke-width="1.33333"/>
<path d="M27.8259 28.0758L27.8279 28.0768C27.8303 28.0785 27.8322 28.0809 27.8347 28.0826C27.8316 28.0805 27.8289 28.0779 27.8259 28.0758Z" fill="#4CAF4F" stroke="#4CAF4F" stroke-width="1.33333"/>
</svg>
