<svg width="48" height="48" viewBox="0 0 48 48" fill="none" xmlns="http://www.w3.org/2000/svg">
<path d="M16.4999 8.73593C18.8587 8.73593 21.161 9.46172 23.0936 10.8141C25.0259 12.1663 26.4955 14.0799 27.3036 16.2955C28.1117 18.5115 28.2195 20.9228 27.6112 23.2018C27.0029 25.4806 25.7081 27.5173 23.9032 29.0357L23.2958 29.5475L24.0184 29.8746C26.9917 31.2201 29.5508 33.3372 31.4286 36.0064L31.4354 36.0162L31.4432 36.026C31.589 36.2128 31.6953 36.4277 31.7557 36.6568C31.8162 36.8861 31.8296 37.1255 31.7948 37.36C31.76 37.5944 31.6779 37.8193 31.5536 38.0211C31.4292 38.2229 31.265 38.3973 31.0712 38.5338C30.8773 38.6703 30.6576 38.766 30.4257 38.815C30.1938 38.864 29.954 38.8662 29.7216 38.8199C29.4892 38.7736 29.2685 38.6796 29.0731 38.5455C28.8778 38.4114 28.7115 38.2389 28.5848 38.0387L28.579 38.0289L28.5721 38.0191L28.3114 37.6598C26.984 35.8851 25.2724 34.4307 23.3026 33.4068C21.2014 32.3147 18.8679 31.7447 16.4999 31.7447C14.1319 31.7447 11.7983 32.3147 9.69714 33.4068C7.5961 34.4989 5.78925 36.0812 4.42859 38.0191L4.42761 38.0201C4.26766 38.2498 4.05386 38.4378 3.80554 38.567C3.55736 38.6961 3.2816 38.763 3.00183 38.7623H2.99792C2.63907 38.7634 2.28891 38.6516 1.99695 38.443L1.995 38.442L1.85828 38.3346C1.55451 38.0715 1.34853 37.7105 1.27917 37.3111C1.19996 36.8546 1.30489 36.3846 1.57117 36.0055C3.44896 33.3365 6.00823 31.22 8.98132 29.8746L9.70398 29.5475L9.09656 29.0357C7.29172 27.5173 5.99686 25.4806 5.38855 23.2018C4.78027 20.9228 4.88805 18.5115 5.69617 16.2955C6.50434 14.0797 7.9746 12.1663 9.9071 10.8141C11.8397 9.46174 14.1411 8.73595 16.4999 8.73593ZM28.6649 9.1832H28.6659L28.6747 9.18124C29.6848 8.8937 30.7299 8.74788 31.7802 8.7496H31.7831C34.1431 8.74283 36.4479 9.46401 38.3837 10.8141C40.3196 12.1642 41.7923 14.0783 42.6014 16.2955C43.4105 18.5126 43.5164 20.9251 42.9052 23.2047C42.2939 25.4844 40.9953 27.5208 39.1854 29.0357L38.5751 29.5465L39.2997 29.8746C42.273 31.2201 44.832 33.3372 46.7098 36.0064L46.7118 36.0094C46.8452 36.196 46.94 36.4077 46.9911 36.6314C47.0421 36.8551 47.0489 37.0871 47.0096 37.3131C46.9704 37.539 46.886 37.7546 46.7626 37.9478C46.6391 38.1412 46.4785 38.3083 46.2899 38.4391L46.2841 38.443C45.992 38.6517 45.642 38.7624 45.2831 38.7613C45.0026 38.7595 44.7262 38.6926 44.4774 38.5631C44.2906 38.4658 44.1238 38.3356 43.9833 38.1803L43.8514 38.0172C42.4881 36.0832 40.6809 34.5042 38.5809 33.4137C36.4806 32.323 34.1487 31.7522 31.7821 31.7496H31.7811C31.3171 31.7496 30.872 31.5659 30.5438 31.2379C30.2156 30.9097 30.0311 30.4637 30.0311 29.9996C30.0312 29.5356 30.2157 29.0904 30.5438 28.7623C30.872 28.4342 31.3171 28.2496 31.7811 28.2496C33.9029 28.2496 35.9381 27.4071 37.4384 25.9068C38.9386 24.4066 39.7811 22.3713 39.7811 20.2496C39.781 18.1281 38.9384 16.0935 37.4384 14.5934C35.9381 13.0931 33.9029 12.2496 31.7811 12.2496C31.05 12.2483 30.3221 12.3498 29.619 12.5504L29.6132 12.5523C29.3908 12.6186 29.1574 12.6396 28.9266 12.6148C28.6959 12.5901 28.4727 12.5197 28.2694 12.4078C28.0661 12.2959 27.8864 12.1452 27.7421 11.9635C27.5978 11.7817 27.4915 11.5726 27.4286 11.3492C27.3657 11.1258 27.3476 10.8921 27.3759 10.6617C27.4042 10.4313 27.4785 10.209 27.5936 10.0074C27.7087 9.80588 27.8627 9.62932 28.0468 9.48788C28.2307 9.34652 28.4407 9.24259 28.6649 9.1832ZM18.0604 12.4039C16.5086 12.0953 14.9001 12.2535 13.4384 12.859C11.9767 13.4644 10.7275 14.4898 9.84851 15.8053C8.96953 17.1207 8.49996 18.6675 8.49988 20.2496C8.49988 22.3712 9.34252 24.4066 10.8427 25.9068C12.3429 27.4071 14.3782 28.2496 16.4999 28.2496C18.082 28.2496 19.6287 27.7809 20.9442 26.9019C22.2598 26.0229 23.286 24.7729 23.8915 23.3111C24.4968 21.8494 24.6552 20.2407 24.3466 18.6891C24.0379 17.1374 23.2758 15.7121 22.1571 14.5934C21.0383 13.4745 19.6123 12.7126 18.0604 12.4039Z" fill="#4CAF4F" stroke="#4CAF4F"/>
</svg>
