<svg width="32" height="32" viewBox="0 0 32 32" fill="none" xmlns="http://www.w3.org/2000/svg">
<path opacity="0.1" fill-rule="evenodd" clip-rule="evenodd" d="M0 16C0 7.16344 7.16344 0 16 0C24.8366 0 32 7.16344 32 16C32 24.8366 24.8366 32 16 32C7.16344 32 0 24.8366 0 16Z" fill="white"/>
<path fill-rule="evenodd" clip-rule="evenodd" d="M22.6677 10.4996C23.4021 10.7012 23.9804 11.2949 24.1767 12.0489C24.5333 13.4154 24.5333 16.2668 24.5333 16.2668C24.5333 16.2668 24.5333 19.118 24.1767 20.4846C23.9804 21.2386 23.4021 21.8324 22.6677 22.034C21.3369 22.4001 16 22.4001 16 22.4001C16 22.4001 10.6631 22.4001 9.33218 22.034C8.59783 21.8324 8.0195 21.2386 7.82323 20.4846C7.46667 19.118 7.46667 16.2668 7.46667 16.2668C7.46667 16.2668 7.46667 13.4154 7.82323 12.0489C8.0195 11.2949 8.59783 10.7012 9.33218 10.4996C10.6631 10.1334 16 10.1334 16 10.1334C16 10.1334 21.3369 10.1334 22.6677 10.4996ZM14.4 13.8667V19.2L18.6667 16.5335L14.4 13.8667Z" fill="white"/>
</svg>
